<svg width="440" height="50" viewBox="0 0 440 50" fill="none" xmlns="http://www.w3.org/2000/svg">
<g opacity="0.1">
<path fill-rule="evenodd" clip-rule="evenodd" d="M263.326 22.837C204.77 23.7251 146.185 27.248 87.8839 33.5451C60.1657 36.5395 27.9766 36.1652 1.09341 46.3742C-0.246114 46.8879 0.00899263 48.4292 0.0379866 48.5833C0.0959745 48.8989 0.339586 49.9484 1.40656 49.9997C1.52254 50.0071 2.34011 49.8603 2.65325 49.8089C10.5918 48.4878 18.5014 46.9467 26.4457 45.699C53.874 41.3762 81.3834 38.1102 108.933 35.2479C145.501 31.4461 182.381 29.4204 219.047 27.8351C239.116 26.9691 259.667 28.1213 279.801 26.3305C287.194 26.2791 294.588 26.2719 301.981 26.3013C332.889 26.4408 363.761 27.9233 394.617 29.9563C404.538 30.6095 412.106 31.314 421.819 31.7911C425.507 31.9746 431.358 32.0994 435.428 32.1801C436.026 32.1948 437.551 32.2093 438.183 32.2166C438.247 32.2313 438.311 32.2313 438.38 32.2313C438.624 32.2313 438.74 32.2093 438.763 32.2093C440.143 31.9524 440.015 30.3011 439.981 30.0516C439.975 30.0002 439.766 28.6057 438.577 28.5543C438.293 28.5397 436.258 28.5251 435.475 28.5104C431.427 28.4297 425.6 28.3049 421.929 28.1288C412.233 27.6517 404.672 26.9472 394.767 26.294C363.866 24.261 332.947 22.7711 301.993 22.6317C298.212 22.617 294.425 22.6096 290.644 22.617C290.517 22.1986 290.233 21.7289 289.606 21.5234C289.021 21.3326 284.828 21.1638 283.21 20.995C271.236 19.7473 271.59 19.806 258.415 18.7859C238.461 17.2373 235.422 16.8848 214.669 16.2316C176.971 15.0427 139.255 15.1382 101.552 15.2556C82.9375 15.3217 63.007 16.9143 44.1088 13.9419C50.3367 13.0171 56.5878 12.3419 62.8273 11.5713C84.1321 8.94383 105.454 7.31442 126.846 6.1695C178.159 3.4246 229.554 2.33113 280.85 6.07417C269.931 6.20628 259.018 6.51444 248.099 6.7126C203.651 7.5346 158.774 6.91816 114.419 11.1823C113.625 11.263 113.027 12.1437 113.085 13.1492C113.143 14.162 113.845 14.918 114.639 14.8446C158.936 10.5805 203.75 11.2042 248.139 10.3822C264.631 10.0813 281.117 9.53827 297.609 9.69974C303.268 9.75845 308.928 10.0227 314.588 10.1108C315.707 10.1328 318.589 10.4117 319.001 10.2943C319.911 10.0374 320.108 9.18597 320.166 8.76763C320.195 8.5181 320.288 7.0796 318.896 6.56585C309.398 3.05766 291.868 3.21913 282.636 2.52923C230.708 -1.36059 178.676 -0.274404 126.724 2.49985C105.28 3.65212 83.9059 5.28888 62.5432 7.92369C55.0801 8.8411 47.5997 9.63373 40.1657 10.8521C38.9653 11.0502 36.2689 11.3365 34.9642 11.6374C34.4191 11.7622 34.0247 11.9382 33.8508 12.063C33.1723 12.5474 33.0505 13.2519 33.0505 13.729C33.0447 14.096 33.1665 15.3877 34.5872 15.74C56.2341 21.105 79.7888 18.9987 101.557 18.9253C139.238 18.8079 176.924 18.7123 214.599 19.9013C235.301 20.5545 238.328 20.8996 258.241 22.4482C260.207 22.595 261.871 22.7269 263.326 22.837Z" fill="black"/>
</g>
</svg>
